<?xml version="1.0" encoding="UTF-8"?>
<svg id="Capa_1" data-name="Capa 1" xmlns="http://www.w3.org/2000/svg" viewBox="0 0 1174.32 270.35">
  <path d="M143.32,137.38c-4.19,12.26-17.87,32.36-1.92,37.26,36.17,11.11,52.67-22.05,46.05-53.54,27.96,3.77,18.28,53.48,55.05,48.91,11.33-37.1-21.67-77.04-60.54-59.82-6.25-17.46,33.89-11.97,41.04-10.61,27.07,5.14,30.36,25.61,41.69,37.76,5.33,5.72,8.82-22.51,21.91-16.25,40.83,127.01,76.89-32.3-13.83-10.99l-2.62-10.74c39.41-6.53,56.44,8.01,82.62,32.58-1.46-30.81,30.89-50.48,55.63-30.31,32.76,26.71-36.36,67.16,2.45,73.96,32.62,5.71,57.14-36.08,57.28-62.99.02-4.17-13.55-3.91-15.85-10.75-2.2-6.57,2.93-18.32,8.03-18.7,6.71-.5,14.78,14.44,18.04,15.82,12.55,5.3,34.59,3.08,42.78,11.08,11.44,11.17,17.6,71.22,43.01,64.8,26.83-6.78,6.09-89.58,9.2-116.31,3.26-27.99,15.92-65.41,51.54-57.45,17.24,3.86-7.23,111.73-18.37,128.21,13.62,11.13,10.77-7.93,16.99-15.68,24.86-30.98,53.95,1.22,60.12-3.48-17.04-31.32,1.09-128.63,49.6-105.96,17.67,8.26,1.67,66.86-1.62,85.35-4.96,27.86-21.75,35.5-3.03,66.06,36.3,59.27,36.05-35.83,62.18-51.21,15.03-8.85,67.67-8.4,52.71,5.79-8.04-.7-15.11-5.62-23.58-4.46-41.85,5.7-25.79,80.74,1.89,61.88l18.9-46.48c12.55,11.1,27.95,60.64,49.54,54.28,17.32-5.11-3.42-53.12,25.09-73.18,22.53-15.85,53.55-5.46,55,22.05,1.87,35.51-44.93,8.8-16.63-11.36-29.59-22.39-29.31,5.9-22.83,28.09,10.5,35.93,25.72,41.46,61.52,29,2.52,1.81,2.52,3.62,0,5.44-36.17,49.79-80.45-5.33-85.45-5.35-8.93-.03-33.35,55.02-74.32-.09-8.39,28.81-27.48,30.57-51.37,16.26-5.05-3.02-2.22-11.03-6.67-10.93-13.57.3-31.14,35.57-60.78,11.19-8.8-7.24-13.97-36.28-24.52-27.35-2.43,2.05-1.92,16.32-18.04,23.07-15.91,6.66-40.89.88-48.64,6.39-6.86,4.88-1.05,30.79-18.92,30.1-11.29-.44-11.56-37.99-22.09-43.23-7.98-3.97-11.06,16.68-30.06,19.52-19.5,2.92-33.29-14.86-41.8-30.18-6.59-11.86-15.52-62.39-35.49-49.18-3.37,2.23-6.13,46.39-38.91,67.68-44.11,28.64-72.77-10.88-76.78-7.87-.58.44-.65,8.8-5.79,13.24-20.06,17.34-37.14-3.34-54.96-13.26-3.73,4.67,15.98,47.23,16.34,57.61.47,13.35-16.35,50.81-27.49,31.16-7.37-13-7.03-63.18-16.25-70.26-5.53-4.25-18.2,1.61-26.77-.37-15.27-3.51-19.38-17.91-34.09-18.09,18.93,11.59,21.2,111.91-5.46,92.34-4.4-3.23-21.38-85.38-16.65-97.83-27.93,26.86-68.63,38.6-90.91-.06-2.48-.14-9.84,24.47-28.44,26.08-11.91,1.03-39.49-30.95-40.32-12.5-.3,6.79,17.54,34.79,16.74,54.32-.37,9.11-7.51,32.82-19.57,29.98-14.18-3.34-33.99-133.44-19.29-146.74,8.72-7.89,9.42,2.64,12.27,6.98,5.51,8.4,22.33,62.24,40.19,36.65,16.57-23.75-27.35-75.41-55.41-54.63l-2.62-10.74c33.81-3.29,62.53,1.91,79.92,32.48,4.43.15,24.11-61.57,63.24-29.53,18.15,14.86,4.35,22.82.16,35.08-4.24-1.31-8.43-3.71-9.53-8.12-9.28-37.07-15.43,16.42,9.53,8.12ZM622.93,12.32c-1.46-1.4-13.22-2.01-16.59,3.68-7.13,12.05-10.83,60.78,2.86,72.43,5.4-10.29,18.62-71.42,13.73-76.1ZM716.62,110.16c-1.03-15.63,31.35-93.03,8.25-97.79-24.89-5.13-18.04,68.1-15.55,82.01,1.07,5.97-1.43,17.18,7.3,15.79ZM396.81,153.64c10.8-8.75,20.26-57.77-8.11-48.83-16.96,5.34-6.59,60.74,8.11,48.83ZM654.56,122.55c-24.49-28.93-50.88,51.39-28.21,58.02,26.82,7.85,44.19-39.14,28.21-58.02Z" fill="#fff"/>
  <path d="M992.34,170c8.51-44.64-7.53-86.38,4.62-134.06,4.7-18.46,18.27-41.15,41.49-34.04,20.17,6.18,3.81,87.17-7.51,102.81,2.97,2.47,57.94-34.27,61.12,13.61,2.32,34.97-22.49,36.34-50.06,43.5,35.09,45.21,79.07,49.59,132.34,38.14-37.66,68.16-110.24,36.75-132.44-24.48-12.64,3.96,3.2,48-19.14,43.42-20.9-4.28-10.64-61.88-30.4-43.46.25-1.78-.33-3.7,0-5.44ZM1030.89,88.48c.38-5.71,21.43-96.1-5.42-76.11-6.07,4.52-6.98,57.2-5.58,68.03.97,7.47,3.78,16.75,11,8.08ZM1030.95,148.22c24.05,8.68,37.97-34.33,19.19-37.99-14.36-2.8-17.24,29.97-19.19,37.99Z" fill="#fff"/>
</svg>